<svg width="35" height="35" viewBox="0 0 35 35" fill="none" xmlns="http://www.w3.org/2000/svg">
<rect width="35" height="35" rx="10" fill="white"/>
<g clip-path="url(#clip0_1_402)">
<path d="M16.8983 8.29855C14.6621 8.52851 12.6242 9.50386 11.062 11.0938C10.5308 11.633 10.273 11.9502 9.87259 12.5568C9.11927 13.6907 8.59195 15.0903 8.38974 16.4899C8.30648 17.0609 8.29459 18.3692 8.36595 18.9204C8.65935 21.1446 9.57127 23.02 11.1057 24.5544C11.6806 25.1293 11.9898 25.387 12.5568 25.7676C13.4885 26.3941 14.4718 26.8263 15.5939 27.1038C16.3789 27.2981 16.9578 27.3655 17.8499 27.3655C19.5666 27.3655 21.0376 26.9888 22.5125 26.1721C22.9843 25.9104 23.1033 25.7637 23.0993 25.4425C23.0953 25.169 22.9764 24.9786 22.7504 24.8716C22.5085 24.7526 22.342 24.7645 22.0486 24.9271C19.6697 26.2474 17.152 26.4298 14.7454 25.4584C12.0493 24.372 10.1105 21.8781 9.69814 18.9759C9.61091 18.3494 9.61091 17.3424 9.69814 16.7238C10.1937 13.2546 12.8105 10.4752 16.2322 9.78536C18.6904 9.28579 21.2081 9.93999 23.1667 11.5775C25.4267 13.4727 26.5011 16.5415 25.9183 19.4279C25.7994 20.0028 25.5734 20.7363 25.4425 20.9662C25.0064 21.7235 23.9438 21.8464 23.3372 21.212C23.1191 20.986 23.0121 20.764 22.9645 20.4389C22.9407 20.2803 22.9249 18.7499 22.9249 16.6802C22.9249 13.2705 22.9209 13.1872 22.8456 13.0603C22.7266 12.87 22.5482 12.7749 22.2905 12.7749C22.0328 12.7749 21.8544 12.87 21.7354 13.0603C21.664 13.1753 21.6561 13.2625 21.6561 13.8216V14.452L21.3627 14.1705C20.7323 13.5758 19.9552 13.1396 19.1305 12.9255C18.3019 12.7114 17.275 12.7233 16.4582 12.9533C15.5859 13.1991 14.9198 13.5916 14.2537 14.2498C12.5251 15.9547 12.2555 18.6785 13.6114 20.6926C14.8168 22.4768 17.0093 23.3174 19.0869 22.79C20.0186 22.5522 20.7045 22.1676 21.4024 21.4896L21.7632 21.1367L21.9376 21.4856C22.1795 21.9773 22.6116 22.4134 23.0835 22.6394C23.5315 22.8614 23.809 22.9249 24.2927 22.9249C25.0659 22.9249 25.6289 22.6909 26.1562 22.1557C26.5289 21.783 26.6915 21.4975 26.9056 20.8473C27.2267 19.8719 27.3655 18.96 27.3655 17.8578C27.3655 16.252 27.0998 15.0546 26.4377 13.6669C24.8438 10.3365 21.4618 8.22321 17.7745 8.2589C17.4772 8.26286 17.0846 8.28269 16.8983 8.29855ZM18.9005 14.222C20.1296 14.5789 21.101 15.5463 21.4817 16.7992C21.5847 17.1322 21.5927 17.2036 21.5927 17.8499C21.5927 18.4961 21.5847 18.5675 21.4817 18.9005C20.7918 21.1605 18.3098 22.2627 16.2044 21.2398C15.1379 20.7244 14.3806 19.7411 14.1427 18.5675C14.0476 18.1155 14.0793 17.2829 14.2022 16.8626C14.3767 16.256 14.674 15.7287 15.0943 15.2767C16.0657 14.2379 17.5406 13.8295 18.9005 14.222Z" fill="#000AFF"/>
</g>
<defs>
<clipPath id="clip0_1_402">
<rect width="20.3" height="20.3" fill="white" transform="translate(7.69995 7.69995)"/>
</clipPath>
</defs>
</svg>
