<svg width="145" height="25" viewBox="0 0 145 25" fill="none" xmlns="http://www.w3.org/2000/svg">
<path d="M0.24 24V0.959999H9.968C10.192 0.959999 10.4907 0.970666 10.864 0.991999C11.248 1.00267 11.5893 1.03467 11.888 1.088C13.264 1.30133 14.3893 1.75467 15.264 2.448C16.1493 3.14133 16.8 4.016 17.216 5.072C17.632 6.11733 17.84 7.28533 17.84 8.576C17.84 10.5067 17.36 12.16 16.4 13.536C15.44 14.9013 13.936 15.744 11.888 16.064L9.968 16.192H4.592V24H0.24ZM13.232 24L8.688 14.624L13.168 13.76L18.16 24H13.232ZM4.592 12.128H9.776C10 12.128 10.2453 12.1173 10.512 12.096C10.7787 12.0747 11.024 12.032 11.248 11.968C11.8347 11.808 12.288 11.5413 12.608 11.168C12.928 10.784 13.1467 10.3627 13.264 9.904C13.392 9.43467 13.456 8.992 13.456 8.576C13.456 8.16 13.392 7.72267 13.264 7.264C13.1467 6.79467 12.928 6.37333 12.608 6C12.288 5.616 11.8347 5.344 11.248 5.184C11.024 5.12 10.7787 5.07733 10.512 5.056C10.2453 5.03467 10 5.024 9.776 5.024H4.592V12.128ZM28.4935 24.48C26.7548 24.48 25.2295 24.0907 23.9175 23.312C22.6055 22.5333 21.5815 21.4613 20.8455 20.096C20.1202 18.72 19.7575 17.1413 19.7575 15.36C19.7575 13.5573 20.1308 11.9733 20.8775 10.608C21.6242 9.232 22.6535 8.16 23.9655 7.392C25.2775 6.624 26.7868 6.24 28.4935 6.24C30.2322 6.24 31.7575 6.62933 33.0695 7.408C34.3922 8.18667 35.4215 9.264 36.1575 10.64C36.8935 12.0053 37.2615 13.5787 37.2615 15.36C37.2615 17.152 36.8882 18.736 36.1415 20.112C35.4055 21.4773 34.3762 22.5493 33.0535 23.328C31.7415 24.096 30.2215 24.48 28.4935 24.48ZM28.4935 20.416C29.8908 20.416 30.9308 19.9467 31.6135 19.008C32.3068 18.0587 32.6535 16.8427 32.6535 15.36C32.6535 13.824 32.3015 12.5973 31.5975 11.68C30.9042 10.7627 29.8695 10.304 28.4935 10.304C27.5442 10.304 26.7655 10.5173 26.1575 10.944C25.5495 11.3707 25.0962 11.9627 24.7975 12.72C24.5095 13.4773 24.3655 14.3573 24.3655 15.36C24.3655 16.9067 24.7122 18.1387 25.4055 19.056C26.1095 19.9627 27.1388 20.416 28.4935 20.416ZM47.436 24.48C45.644 24.48 44.108 24.08 42.828 23.28C41.548 22.48 40.5667 21.392 39.884 20.016C39.2013 18.64 38.86 17.088 38.86 15.36C38.86 13.6107 39.212 12.048 39.916 10.672C40.6307 9.296 41.6333 8.21333 42.924 7.424C44.2147 6.63467 45.74 6.24 47.5 6.24C49.5373 6.24 51.244 6.75733 52.62 7.792C54.0067 8.816 54.892 10.2187 55.276 12L50.924 13.152C50.668 12.256 50.22 11.5573 49.58 11.056C48.9507 10.5547 48.236 10.304 47.436 10.304C46.5187 10.304 45.7667 10.528 45.18 10.976C44.5933 11.4133 44.1613 12.016 43.884 12.784C43.6067 13.5413 43.468 14.4 43.468 15.36C43.468 16.864 43.7987 18.0853 44.46 19.024C45.132 19.952 46.124 20.416 47.436 20.416C48.4173 20.416 49.164 20.192 49.676 19.744C50.188 19.296 50.572 18.656 50.828 17.824L55.276 18.752C54.7853 20.5867 53.8573 22 52.492 22.992C51.1267 23.984 49.4413 24.48 47.436 24.48ZM57.4842 24L57.5162 0.959999H61.9322V15.04L67.7882 6.72H73.1642L66.9242 15.36L73.5802 24H67.9162L61.9322 15.68V24H57.4842ZM81.932 24.48C80.1613 24.48 78.5987 24.1013 77.244 23.344C75.9 22.576 74.844 21.5253 74.076 20.192C73.3187 18.848 72.94 17.312 72.94 15.584C72.94 13.696 73.3133 12.0533 74.06 10.656C74.8067 9.25867 75.836 8.176 77.148 7.408C78.46 6.62933 79.9693 6.24 81.676 6.24C83.4893 6.24 85.0307 6.66667 86.3 7.52C87.5693 8.37333 88.508 9.57333 89.116 11.12C89.724 12.6667 89.9373 14.4853 89.756 16.576H85.452V14.976C85.452 13.216 85.1693 11.952 84.604 11.184C84.0493 10.4053 83.1373 10.016 81.868 10.016C80.3853 10.016 79.292 10.4693 78.588 11.376C77.8947 12.272 77.548 13.6 77.548 15.36C77.548 16.9707 77.8947 18.2187 78.588 19.104C79.292 19.9787 80.3213 20.416 81.676 20.416C82.5293 20.416 83.26 20.2293 83.868 19.856C84.476 19.4827 84.94 18.944 85.26 18.24L89.612 19.488C88.9613 21.0667 87.932 22.2933 86.524 23.168C85.1267 24.0427 83.596 24.48 81.932 24.48ZM76.204 16.576V13.344H87.66V16.576H76.204ZM102.777 24C101.582 24.224 100.409 24.32 99.2567 24.288C98.1154 24.2667 97.0914 24.0693 96.1847 23.696C95.2887 23.312 94.6061 22.6987 94.1367 21.856C93.7101 21.0667 93.4861 20.2667 93.4647 19.456C93.4434 18.6347 93.4327 17.7067 93.4327 16.672V1.92H97.7847V16.416C97.7847 17.088 97.7901 17.696 97.8007 18.24C97.8221 18.7733 97.9341 19.2 98.1367 19.52C98.5207 20.128 99.1341 20.4587 99.9767 20.512C100.819 20.5653 101.753 20.5227 102.777 20.384V24ZM90.4887 10.08V6.72H102.777V10.08H90.4887ZM104.067 24L111.107 0.959999H117.603L124.643 24H120.163L113.891 3.68H114.723L108.547 24H104.067ZM108.291 19.2V15.136H120.451V19.2H108.291ZM126.551 24V0.959999H136.279C136.503 0.959999 136.802 0.970666 137.175 0.991999C137.559 1.00267 137.901 1.03467 138.199 1.088C139.575 1.30133 140.701 1.75467 141.575 2.448C142.461 3.14133 143.111 4.016 143.527 5.072C143.943 6.11733 144.151 7.28533 144.151 8.576C144.151 10.5067 143.671 12.16 142.711 13.536C141.751 14.9013 140.247 15.744 138.199 16.064L136.279 16.192H130.903V24H126.551ZM139.543 24L134.999 14.624L139.479 13.76L144.471 24H139.543ZM130.903 12.128H136.087C136.311 12.128 136.557 12.1173 136.823 12.096C137.09 12.0747 137.335 12.032 137.559 11.968C138.146 11.808 138.599 11.5413 138.919 11.168C139.239 10.784 139.458 10.3627 139.575 9.904C139.703 9.43467 139.767 8.992 139.767 8.576C139.767 8.16 139.703 7.72267 139.575 7.264C139.458 6.79467 139.239 6.37333 138.919 6C138.599 5.616 138.146 5.344 137.559 5.184C137.335 5.12 137.09 5.07733 136.823 5.056C136.557 5.03467 136.311 5.024 136.087 5.024H130.903V12.128Z" fill="#000AFF"/>
</svg>
