<svg width="159" height="27" viewBox="0 0 159 27" fill="none" xmlns="http://www.w3.org/2000/svg">
<path d="M0.45 26V0.799999H11.09C11.335 0.799999 11.6617 0.811666 12.07 0.834999C12.49 0.846666 12.8633 0.881666 13.19 0.939999C14.695 1.17333 15.9258 1.66917 16.8825 2.4275C17.8508 3.18583 18.5625 4.1425 19.0175 5.2975C19.4725 6.44083 19.7 7.71833 19.7 9.13C19.7 11.2417 19.175 13.05 18.125 14.555C17.075 16.0483 15.43 16.97 13.19 17.32L11.09 17.46H5.21V26H0.45ZM14.66 26L9.69 15.745L14.59 14.8L20.05 26H14.66ZM5.21 13.015H10.88C11.125 13.015 11.3933 13.0033 11.685 12.98C11.9767 12.9567 12.245 12.91 12.49 12.84C13.1317 12.665 13.6275 12.3733 13.9775 11.965C14.3275 11.545 14.5667 11.0842 14.695 10.5825C14.835 10.0692 14.905 9.585 14.905 9.13C14.905 8.675 14.835 8.19667 14.695 7.695C14.5667 7.18167 14.3275 6.72083 13.9775 6.3125C13.6275 5.8925 13.1317 5.595 12.49 5.42C12.245 5.35 11.9767 5.30333 11.685 5.28C11.3933 5.25667 11.125 5.245 10.88 5.245H5.21V13.015ZM31.3523 26.525C29.4506 26.525 27.7823 26.0992 26.3473 25.2475C24.9123 24.3958 23.7923 23.2233 22.9873 21.73C22.1939 20.225 21.7973 18.4983 21.7973 16.55C21.7973 14.5783 22.2056 12.8458 23.0223 11.3525C23.8389 9.8475 24.9648 8.675 26.3998 7.835C27.8348 6.995 29.4856 6.575 31.3523 6.575C33.2539 6.575 34.9223 7.00083 36.3573 7.8525C37.8039 8.70417 38.9298 9.8825 39.7348 11.3875C40.5398 12.8808 40.9423 14.6017 40.9423 16.55C40.9423 18.51 40.5339 20.2425 39.7173 21.7475C38.9123 23.2408 37.7864 24.4133 36.3398 25.265C34.9048 26.105 33.2423 26.525 31.3523 26.525ZM31.3523 22.08C32.8806 22.08 34.0181 21.5667 34.7648 20.54C35.5231 19.5017 35.9023 18.1717 35.9023 16.55C35.9023 14.87 35.5173 13.5283 34.7473 12.525C33.9889 11.5217 32.8573 11.02 31.3523 11.02C30.3139 11.02 29.4623 11.2533 28.7973 11.72C28.1323 12.1867 27.6364 12.8342 27.3098 13.6625C26.9948 14.4908 26.8373 15.4533 26.8373 16.55C26.8373 18.2417 27.2164 19.5892 27.9748 20.5925C28.7448 21.5842 29.8706 22.08 31.3523 22.08ZM52.0706 26.525C50.1106 26.525 48.4306 26.0875 47.0306 25.2125C45.6306 24.3375 44.5573 23.1475 43.8106 21.6425C43.064 20.1375 42.6906 18.44 42.6906 16.55C42.6906 14.6367 43.0756 12.9275 43.8456 11.4225C44.6273 9.9175 45.724 8.73333 47.1356 7.87C48.5473 7.00667 50.2156 6.575 52.1406 6.575C54.369 6.575 56.2356 7.14083 57.7406 8.2725C59.2573 9.3925 60.2256 10.9267 60.6456 12.875L55.8856 14.135C55.6056 13.155 55.1156 12.3908 54.4156 11.8425C53.7273 11.2942 52.9456 11.02 52.0706 11.02C51.0673 11.02 50.2448 11.265 49.6031 11.755C48.9615 12.2333 48.489 12.8925 48.1856 13.7325C47.8823 14.5608 47.7306 15.5 47.7306 16.55C47.7306 18.195 48.0923 19.5308 48.8156 20.5575C49.5506 21.5725 50.6356 22.08 52.0706 22.08C53.144 22.08 53.9606 21.835 54.5206 21.345C55.0806 20.855 55.5006 20.155 55.7806 19.245L60.6456 20.26C60.109 22.2667 59.094 23.8125 57.6006 24.8975C56.1073 25.9825 54.264 26.525 52.0706 26.525ZM63.0609 26L63.0959 0.799999H67.9259V16.2L74.3309 7.1H80.2109L73.3859 16.55L80.6659 26H74.4709L67.9259 16.9V26H63.0609ZM89.8006 26.525C87.864 26.525 86.1548 26.1108 84.6731 25.2825C83.2031 24.4425 82.0481 23.2933 81.2081 21.835C80.3798 20.365 79.9656 18.685 79.9656 16.795C79.9656 14.73 80.374 12.9333 81.1906 11.405C82.0073 9.87667 83.1331 8.6925 84.5681 7.8525C86.0031 7.00083 87.654 6.575 89.5206 6.575C91.504 6.575 93.1898 7.04167 94.5781 7.975C95.9665 8.90833 96.9931 10.2208 97.6581 11.9125C98.3231 13.6042 98.5565 15.5933 98.3581 17.88H93.6506V16.13C93.6506 14.205 93.3415 12.8225 92.7231 11.9825C92.1165 11.1308 91.119 10.705 89.7306 10.705C88.109 10.705 86.9131 11.2008 86.1431 12.1925C85.3848 13.1725 85.0056 14.625 85.0056 16.55C85.0056 18.3117 85.3848 19.6767 86.1431 20.645C86.9131 21.6017 88.039 22.08 89.5206 22.08C90.454 22.08 91.2531 21.8758 91.9181 21.4675C92.5831 21.0592 93.0906 20.47 93.4406 19.7L98.2006 21.065C97.489 22.7917 96.3631 24.1333 94.8231 25.09C93.2948 26.0467 91.6206 26.525 89.8006 26.525ZM83.5356 17.88V14.345H96.0656V17.88H83.5356ZM112.6 26C111.293 26.245 110.01 26.35 108.75 26.315C107.501 26.2917 106.381 26.0758 105.39 25.6675C104.41 25.2475 103.663 24.5767 103.15 23.655C102.683 22.7917 102.438 21.9167 102.415 21.03C102.391 20.1317 102.38 19.1167 102.38 17.985V1.85H107.14V17.705C107.14 18.44 107.145 19.105 107.157 19.7C107.18 20.2833 107.303 20.75 107.525 21.1C107.945 21.765 108.615 22.1267 109.537 22.185C110.459 22.2433 111.48 22.1967 112.6 22.045V26ZM99.1596 10.775V7.1H112.6V10.775H99.1596ZM114.011 26L121.711 0.799999H128.816L136.516 26H131.616L124.756 3.775H125.666L118.911 26H114.011ZM118.631 20.75V16.305H131.931V20.75H118.631ZM138.603 26V0.799999H149.243C149.488 0.799999 149.815 0.811666 150.223 0.834999C150.643 0.846666 151.016 0.881666 151.343 0.939999C152.848 1.17333 154.079 1.66917 155.035 2.4275C156.004 3.18583 156.715 4.1425 157.17 5.2975C157.625 6.44083 157.853 7.71833 157.853 9.13C157.853 11.2417 157.328 13.05 156.278 14.555C155.228 16.0483 153.583 16.97 151.343 17.32L149.243 17.46H143.363V26H138.603ZM152.813 26L147.843 15.745L152.743 14.8L158.203 26H152.813ZM143.363 13.015H149.033C149.278 13.015 149.546 13.0033 149.838 12.98C150.13 12.9567 150.398 12.91 150.643 12.84C151.285 12.665 151.78 12.3733 152.13 11.965C152.48 11.545 152.72 11.0842 152.848 10.5825C152.988 10.0692 153.058 9.585 153.058 9.13C153.058 8.675 152.988 8.19667 152.848 7.695C152.72 7.18167 152.48 6.72083 152.13 6.3125C151.78 5.8925 151.285 5.595 150.643 5.42C150.398 5.35 150.13 5.30333 149.838 5.28C149.546 5.25667 149.278 5.245 149.033 5.245H143.363V13.015Z" fill="white"/>
</svg>
