<svg width="35" height="35" viewBox="0 0 35 35" fill="none" xmlns="http://www.w3.org/2000/svg">
<rect width="35" height="35" rx="10" fill="white"/>
<g clip-path="url(#clip0_1_411)">
<path d="M10.6708 7.05742C10.3919 7.14766 10.0679 7.32812 9.789 7.55371C9.36244 7.90234 7.85716 9.45273 7.62337 9.78496C7.38958 10.1172 7.19681 10.5807 7.09837 11.0318C7.01634 11.4215 7.01634 12.41 7.10248 12.935C7.37318 14.6289 8.27142 16.7207 9.56341 18.6895C11.3558 21.4129 13.6814 23.7508 16.2572 25.4078C18.8945 27.1059 21.257 28 23.1027 28C24.046 28 24.6613 27.8113 25.297 27.3314C25.6415 27.073 27.4421 25.2109 27.6308 24.9197C27.8564 24.5711 27.963 24.2061 27.963 23.7918C27.9671 23.3939 27.9138 23.1889 27.721 22.8115C27.5939 22.5572 27.3929 22.3398 26.0353 20.9699C24.1568 19.0791 23.9886 18.952 23.2421 18.9068C22.8484 18.8781 22.5367 18.9437 22.1675 19.1324C21.9091 19.2596 21.7451 19.4031 20.9329 20.2029L19.9937 21.1299L19.641 20.9453C18.7591 20.4859 17.6517 19.6492 16.7042 18.7305C15.4779 17.5369 14.5386 16.3434 14.0423 15.3508L13.8619 14.9857L14.7314 14.1203C15.2277 13.624 15.6706 13.1441 15.7691 12.9924C16.2326 12.2869 16.2326 11.4297 15.765 10.7201C15.5353 10.3715 12.7298 7.56191 12.3771 7.33633C12.012 7.09433 11.6716 7 11.2081 7.0041C11.0031 7.0041 10.7611 7.02871 10.6708 7.05742ZM11.6306 8.19765C11.9177 8.32891 14.7437 11.1631 14.8954 11.4666C15.0472 11.7701 15.0308 12.0695 14.8421 12.3607C14.7724 12.4715 14.2966 12.9719 13.788 13.4764C13.2466 14.0137 12.8242 14.4648 12.7749 14.5592C12.6314 14.8463 12.6806 15.1252 13.0005 15.7691C13.546 16.8684 14.3458 17.9389 15.5517 19.1775C16.7658 20.4285 17.9675 21.3473 19.2349 22.0076C19.7271 22.2619 19.8255 22.2988 20.0183 22.2988C20.1372 22.2988 20.3095 22.2701 20.3956 22.2332C20.5023 22.1881 20.8796 21.8477 21.54 21.1914C22.1552 20.5803 22.5941 20.1783 22.7089 20.1209C22.9673 19.9855 23.2913 19.9937 23.5333 20.1373C23.6318 20.1947 24.3824 20.9125 25.1986 21.7328C26.79 23.3283 26.8474 23.4021 26.8515 23.7959C26.8515 24.1814 26.7326 24.3496 25.7769 25.3258C24.5505 26.5727 24.5054 26.6096 23.9804 26.7859C23.4226 26.9705 22.8484 26.9664 21.8722 26.7654C20.1906 26.4209 17.6886 25.1699 15.7363 23.6934C13.0579 21.6672 10.7201 18.8822 9.35833 16.085C8.09915 13.501 7.80794 11.5937 8.50521 10.4863C8.71029 10.1623 10.5806 8.3084 10.8144 8.19765C11.0605 8.07871 11.3845 8.07871 11.6306 8.19765Z" fill="#000AFF"/>
</g>
<defs>
<clipPath id="clip0_1_411">
<rect width="21" height="21" fill="white" transform="translate(7 7)"/>
</clipPath>
</defs>
</svg>
